G04*
G04 #@! TF.GenerationSoftware,Altium Limited,Altium Designer,21.6.1 (37)*
G04*
G04 Layer_Physical_Order=2*
G04 Layer_Color=16711680*
%FSLAX44Y44*%
%MOMM*%
G71*
G04*
G04 #@! TF.SameCoordinates,6C98E02D-67F3-4860-9AF6-7881D6C0F1E1*
G04*
G04*
G04 #@! TF.FilePolarity,Positive*
G04*
G01*
G75*
%ADD10C,0.2000*%
%ADD12C,0.1700*%
%ADD17C,0.3000*%
%ADD18C,0.7000*%
G04:AMPARAMS|DCode=19|XSize=0.55mm|YSize=0.25mm|CornerRadius=0.0625mm|HoleSize=0mm|Usage=FLASHONLY|Rotation=90.000|XOffset=0mm|YOffset=0mm|HoleType=Round|Shape=RoundedRectangle|*
%AMROUNDEDRECTD19*
21,1,0.5500,0.1250,0,0,90.0*
21,1,0.4250,0.2500,0,0,90.0*
1,1,0.1250,0.0625,0.2125*
1,1,0.1250,0.0625,-0.2125*
1,1,0.1250,-0.0625,-0.2125*
1,1,0.1250,-0.0625,0.2125*
%
%ADD19ROUNDEDRECTD19*%
G04:AMPARAMS|DCode=20|XSize=0.55mm|YSize=0.25mm|CornerRadius=0.025mm|HoleSize=0mm|Usage=FLASHONLY|Rotation=90.000|XOffset=0mm|YOffset=0mm|HoleType=Round|Shape=RoundedRectangle|*
%AMROUNDEDRECTD20*
21,1,0.5500,0.2000,0,0,90.0*
21,1,0.5000,0.2500,0,0,90.0*
1,1,0.0500,0.1000,0.2500*
1,1,0.0500,0.1000,-0.2500*
1,1,0.0500,-0.1000,-0.2500*
1,1,0.0500,-0.1000,0.2500*
%
%ADD20ROUNDEDRECTD20*%
%ADD21R,1.0000X1.0000*%
%ADD22R,0.5400X0.6000*%
%ADD23R,0.5588X1.3208*%
%ADD24R,0.6000X0.5600*%
G36*
X412007Y229821D02*
Y211107D01*
X411642Y209988D01*
X406169D01*
X405854Y210051D01*
X404563D01*
X401834Y212780D01*
X402360Y214050D01*
X402580D01*
Y223450D01*
X400243D01*
Y224770D01*
X399994Y226019D01*
X399287Y227077D01*
X397057Y229307D01*
X395999Y230014D01*
X394750Y230263D01*
X367250D01*
X366001Y230014D01*
X364943Y229307D01*
X361573Y225937D01*
X360866Y224879D01*
X360617Y223630D01*
Y222700D01*
X358280D01*
Y218263D01*
X354500D01*
X353251Y218014D01*
X352193Y217307D01*
X348416Y213531D01*
X347243Y214017D01*
Y229071D01*
X350929Y232757D01*
X409071D01*
X412007Y229821D01*
D02*
G37*
G36*
X393717Y223419D02*
Y220020D01*
X393780Y219705D01*
Y214050D01*
X394917D01*
Y211820D01*
X395166Y210571D01*
X395873Y209513D01*
X400905Y204481D01*
X401963Y203774D01*
X402654Y203636D01*
Y193380D01*
X411642D01*
X412007Y192262D01*
Y187739D01*
X411642Y186620D01*
X402654D01*
Y171775D01*
X394982D01*
X394861Y171896D01*
X394770Y172351D01*
X394063Y173409D01*
X392846Y174626D01*
Y186620D01*
X389515D01*
X388705Y187890D01*
X389200Y189085D01*
Y191153D01*
X388804Y192110D01*
X389652Y193380D01*
X392846D01*
Y209988D01*
X383858D01*
Y195319D01*
X382966D01*
X381054Y194527D01*
X379592Y193065D01*
X378800Y191153D01*
Y189085D01*
X379427Y187570D01*
X374035Y182178D01*
X373468Y182065D01*
X372699Y181551D01*
X372185Y180782D01*
X372005Y179875D01*
Y176875D01*
X371956Y176803D01*
X371747Y175750D01*
Y169600D01*
X369800D01*
Y159663D01*
X364450D01*
Y169600D01*
X362600D01*
Y172429D01*
X363870Y173288D01*
X364000Y173262D01*
X366000D01*
X366761Y173413D01*
X367406Y173844D01*
X367837Y174489D01*
X367988Y175250D01*
Y180250D01*
X367837Y181011D01*
X367406Y181656D01*
X366761Y182087D01*
X366000Y182238D01*
X364000D01*
X363239Y182087D01*
X362594Y181656D01*
X362406D01*
X361761Y182087D01*
X361000Y182238D01*
X359000D01*
X358592Y182157D01*
X358346Y182404D01*
X356434Y183195D01*
X354366D01*
X353233Y182726D01*
X351963Y183571D01*
Y207849D01*
X355467Y211353D01*
X356737Y210827D01*
Y201250D01*
X356986Y200001D01*
X357012Y199962D01*
Y198750D01*
X357163Y197989D01*
X357594Y197344D01*
X358239Y196913D01*
X359000Y196762D01*
X361000D01*
X361761Y196913D01*
X362406Y197344D01*
X362594D01*
X363239Y196913D01*
X364000Y196762D01*
X366000D01*
X366761Y196913D01*
X367406Y197344D01*
X367837Y197989D01*
X367988Y198750D01*
Y203750D01*
X367837Y204511D01*
X367406Y205156D01*
X366761Y205587D01*
X366000Y205738D01*
X364000D01*
X363263Y206343D01*
Y213300D01*
X367080D01*
Y218885D01*
X367143Y219200D01*
Y222279D01*
X368601Y223737D01*
X393399D01*
X393717Y223419D01*
D02*
G37*
G36*
X383858Y182555D02*
Y170012D01*
X388232D01*
X388651Y169593D01*
X388741Y169138D01*
X389449Y168080D01*
X391323Y166205D01*
X392382Y165498D01*
X393630Y165250D01*
X400622D01*
X401300Y164234D01*
Y162166D01*
X402092Y160254D01*
X402420Y159926D01*
Y156800D01*
X411220D01*
X412007Y155856D01*
Y150179D01*
X409071Y147243D01*
X350929D01*
X347243Y150929D01*
Y159483D01*
X348416Y159970D01*
X352993Y155393D01*
X354052Y154686D01*
X355050Y154487D01*
Y151900D01*
X364450D01*
Y153137D01*
X369800D01*
Y151900D01*
X379200D01*
Y160600D01*
Y169600D01*
X377253D01*
Y173916D01*
X377301Y173949D01*
X377815Y174718D01*
X377995Y175625D01*
Y178213D01*
X378003Y178250D01*
Y178360D01*
X382685Y183041D01*
X383858Y182555D01*
D02*
G37*
D10*
X383043Y189162D02*
X384000Y190119D01*
X375250Y179500D02*
X383043Y187293D01*
X375250Y178250D02*
Y179500D01*
X383043Y187293D02*
Y189162D01*
X374500Y165100D02*
Y175750D01*
X375000Y176250D01*
Y176750D01*
D12*
X355400Y177995D02*
X355523Y177873D01*
X359600D01*
X360000Y178273D01*
Y178500D01*
X396500Y179566D02*
Y190250D01*
Y179566D02*
X397750Y178316D01*
X352370Y150797D02*
X378303D01*
X386856Y159350D02*
X397100D01*
X398250Y160500D01*
X378303Y150797D02*
X386856Y159350D01*
X405000Y226000D02*
X406820Y224180D01*
Y218750D02*
Y224180D01*
X371150Y217000D02*
X371320D01*
X375000Y201250D02*
Y214020D01*
X372500Y216520D02*
X375000Y214020D01*
X372500Y216520D02*
Y216750D01*
X370000Y215850D02*
X371150Y217000D01*
X370000Y201250D02*
Y215850D01*
X360000Y165350D02*
Y177250D01*
X359750Y165100D02*
X360000Y165350D01*
D17*
X348700Y164300D02*
Y209200D01*
X354500Y215000D01*
X348700Y164300D02*
X355300Y157700D01*
X360050Y156700D02*
X360350Y156400D01*
X374500D01*
X360000Y201250D02*
Y215000D01*
X354500D02*
X360000D01*
X358450Y157700D02*
X359750Y156400D01*
X355300Y157700D02*
X358450D01*
X374500Y156400D02*
X374500Y156400D01*
X406984Y162766D02*
Y178152D01*
X406500Y161820D02*
Y163200D01*
Y161820D02*
X406820Y161500D01*
X391756Y170387D02*
Y171102D01*
Y170387D02*
X393630Y168512D01*
X406262D01*
X388352Y174506D02*
Y178316D01*
Y174506D02*
X391756Y171102D01*
X406262Y168512D02*
X406500Y168750D01*
X406984Y162766D02*
X407250Y162500D01*
X406984Y178152D02*
X407148Y178316D01*
X405854Y206788D02*
X406750Y205892D01*
X398180Y211820D02*
Y218750D01*
Y211820D02*
X403212Y206788D01*
X405854D01*
X406750Y203250D02*
Y205892D01*
X396980Y220020D02*
Y224770D01*
Y220020D02*
X397750Y219250D01*
X394750Y227000D02*
X396980Y224770D01*
X367250Y227000D02*
X394750D01*
X363880Y223630D02*
X367250Y227000D01*
X363880Y219200D02*
Y223630D01*
X362680Y218000D02*
X363880Y219200D01*
D18*
X355400Y177995D02*
D03*
X384000Y190119D02*
D03*
X386000Y216000D02*
D03*
X396500Y190250D02*
D03*
X352370Y150797D02*
D03*
X405000Y226000D02*
D03*
X406500Y163200D02*
D03*
D19*
X375000Y177750D02*
D03*
D20*
X370000D02*
D03*
X365000D02*
D03*
X360000D02*
D03*
X375000Y201250D02*
D03*
X370000D02*
D03*
X365000D02*
D03*
X360000D02*
D03*
D21*
X367500Y189500D02*
D03*
D22*
X371320Y218000D02*
D03*
X362680D02*
D03*
X398180Y161500D02*
D03*
X406820D02*
D03*
X406820Y218750D02*
D03*
X398180D02*
D03*
D23*
X407148Y201684D02*
D03*
X388352D02*
D03*
Y178316D02*
D03*
X397750D02*
D03*
X407148D02*
D03*
D24*
X374500Y156400D02*
D03*
Y165100D02*
D03*
X359750Y156400D02*
D03*
Y165100D02*
D03*
M02*
