G04*
G04 #@! TF.GenerationSoftware,Altium Limited,Altium Designer,21.6.1 (37)*
G04*
G04 Layer_Color=65535*
%FSLAX44Y44*%
%MOMM*%
G71*
G04*
G04 #@! TF.SameCoordinates,C7AD8A55-ACD4-4C58-AC61-2F0119C6478F*
G04*
G04*
G04 #@! TF.FilePolarity,Positive*
G04*
G01*
G75*
%ADD10C,0.2000*%
%ADD11C,0.1270*%
%ADD12C,0.1700*%
G36*
X349287Y215267D02*
X349260D01*
X349190Y215253D01*
X349093Y215239D01*
X348982Y215198D01*
X348705Y215115D01*
X348566Y215045D01*
X348455Y214976D01*
X348442Y214962D01*
X348386Y214907D01*
X348317Y214823D01*
X348233Y214712D01*
X348136Y214560D01*
X348067Y214380D01*
X348012Y214172D01*
X347998Y213936D01*
Y213853D01*
X348012Y213769D01*
X348026Y213645D01*
X348053Y213520D01*
X348095Y213395D01*
X348150Y213270D01*
X348220Y213159D01*
X348233Y213145D01*
X348261Y213118D01*
X348317Y213076D01*
X348372Y213020D01*
X348455Y212965D01*
X348553Y212923D01*
X348663Y212896D01*
X348774Y212882D01*
X348788D01*
X348830D01*
X348885Y212896D01*
X348955Y212910D01*
X349038Y212951D01*
X349121Y212993D01*
X349218Y213062D01*
X349301Y213145D01*
X349315Y213159D01*
X349343Y213201D01*
X349385Y213284D01*
X349440Y213395D01*
X349509Y213561D01*
X349593Y213769D01*
X349634Y213894D01*
X349662Y214033D01*
X349704Y214185D01*
X349745Y214352D01*
Y214366D01*
X349759Y214421D01*
X349787Y214504D01*
X349801Y214601D01*
X349842Y214726D01*
X349884Y214879D01*
X349925Y215031D01*
X349981Y215198D01*
X350120Y215572D01*
X350272Y215933D01*
X350452Y216266D01*
X350550Y216418D01*
X350661Y216557D01*
X350674D01*
X350688Y216585D01*
X350758Y216654D01*
X350882Y216765D01*
X351063Y216876D01*
X351271Y217001D01*
X351520Y217112D01*
X351798Y217181D01*
X351950Y217195D01*
X352117Y217209D01*
X352131D01*
X352144D01*
X352214D01*
X352339Y217195D01*
X352477Y217167D01*
X352644Y217125D01*
X352838Y217070D01*
X353032Y216987D01*
X353226Y216876D01*
X353254Y216862D01*
X353309Y216807D01*
X353406Y216723D01*
X353531Y216612D01*
X353656Y216474D01*
X353795Y216293D01*
X353920Y216085D01*
X354044Y215850D01*
Y215836D01*
X354058Y215822D01*
X354072Y215780D01*
X354086Y215725D01*
X354114Y215655D01*
X354142Y215572D01*
X354169Y215475D01*
X354197Y215364D01*
X354225Y215239D01*
X354252Y215087D01*
X354308Y214768D01*
X354336Y214394D01*
X354350Y213977D01*
Y213839D01*
X354336Y213742D01*
Y213617D01*
X354322Y213478D01*
X354308Y213326D01*
X354280Y213159D01*
X354211Y212799D01*
X354114Y212424D01*
X353975Y212078D01*
X353892Y211911D01*
X353795Y211758D01*
Y211745D01*
X353767Y211731D01*
X353698Y211634D01*
X353559Y211509D01*
X353379Y211356D01*
X353268Y211273D01*
X353143Y211204D01*
X352990Y211120D01*
X352838Y211051D01*
X352671Y210982D01*
X352491Y210926D01*
X352283Y210885D01*
X352075Y210843D01*
X351950Y213062D01*
X351978D01*
X352034Y213076D01*
X352131Y213104D01*
X352242Y213145D01*
X352352Y213201D01*
X352477Y213256D01*
X352602Y213340D01*
X352699Y213437D01*
X352713Y213450D01*
X352741Y213492D01*
X352769Y213547D01*
X352824Y213631D01*
X352866Y213742D01*
X352893Y213880D01*
X352921Y214033D01*
X352935Y214213D01*
Y214282D01*
X352921Y214352D01*
X352907Y214449D01*
X352866Y214657D01*
X352810Y214754D01*
X352755Y214837D01*
X352741Y214851D01*
X352727Y214865D01*
X352644Y214934D01*
X352505Y215004D01*
X352422Y215018D01*
X352339Y215031D01*
X352325D01*
X352311D01*
X352228Y215004D01*
X352117Y214962D01*
X352061Y214921D01*
X352006Y214865D01*
Y214851D01*
X351978Y214823D01*
X351950Y214782D01*
X351909Y214699D01*
X351867Y214601D01*
X351825Y214463D01*
X351770Y214296D01*
X351728Y214088D01*
Y214074D01*
X351715Y214019D01*
X351701Y213936D01*
X351673Y213839D01*
X351645Y213714D01*
X351604Y213561D01*
X351562Y213395D01*
X351520Y213228D01*
X351423Y212868D01*
X351298Y212493D01*
X351174Y212161D01*
X351118Y212008D01*
X351049Y211869D01*
Y211856D01*
X351035Y211842D01*
X350993Y211758D01*
X350924Y211647D01*
X350827Y211495D01*
X350702Y211342D01*
X350563Y211176D01*
X350397Y211024D01*
X350217Y210899D01*
X350189Y210885D01*
X350134Y210857D01*
X350023Y210802D01*
X349884Y210746D01*
X349717Y210691D01*
X349537Y210635D01*
X349315Y210607D01*
X349093Y210593D01*
X349080D01*
X349066D01*
X349024D01*
X348969D01*
X348830Y210621D01*
X348650Y210649D01*
X348442Y210691D01*
X348206Y210774D01*
X347970Y210871D01*
X347734Y211010D01*
X347706Y211024D01*
X347637Y211079D01*
X347526Y211176D01*
X347388Y211301D01*
X347235Y211467D01*
X347082Y211661D01*
X346944Y211883D01*
X346805Y212147D01*
Y212161D01*
X346791Y212174D01*
X346777Y212216D01*
X346763Y212272D01*
X346736Y212341D01*
X346708Y212438D01*
X346680Y212535D01*
X346652Y212646D01*
X346597Y212910D01*
X346542Y213228D01*
X346514Y213575D01*
X346500Y213977D01*
Y214158D01*
X346514Y214296D01*
X346528Y214449D01*
X346542Y214629D01*
X346555Y214823D01*
X346597Y215045D01*
X346680Y215489D01*
X346805Y215933D01*
X346888Y216141D01*
X346999Y216335D01*
X347110Y216515D01*
X347235Y216668D01*
X347249Y216682D01*
X347277Y216696D01*
X347318Y216737D01*
X347374Y216779D01*
X347443Y216834D01*
X347526Y216904D01*
X347637Y216973D01*
X347748Y217042D01*
X348026Y217195D01*
X348358Y217334D01*
X348719Y217431D01*
X348927Y217472D01*
X349135Y217500D01*
X349287Y215267D01*
D02*
G37*
G36*
X354225Y207057D02*
X351576D01*
Y204478D01*
X354225D01*
Y202120D01*
X346625D01*
Y204478D01*
X349704D01*
Y207057D01*
X346625D01*
Y209401D01*
X354225D01*
Y207057D01*
D02*
G37*
G36*
Y193965D02*
X352352D01*
Y196365D01*
X346625D01*
Y198708D01*
X352352D01*
Y201108D01*
X354225D01*
Y193965D01*
D02*
G37*
G36*
X348913Y191192D02*
X348885D01*
X348816Y191164D01*
X348705Y191136D01*
X348566Y191095D01*
X348275Y190984D01*
X348136Y190900D01*
X348026Y190817D01*
X348012Y190803D01*
X347984Y190776D01*
X347956Y190706D01*
X347915Y190637D01*
X347859Y190540D01*
X347831Y190415D01*
X347804Y190290D01*
X347790Y190138D01*
Y190068D01*
X347804Y189985D01*
X347831Y189888D01*
X347859Y189777D01*
X347915Y189652D01*
X347998Y189541D01*
X348095Y189430D01*
X348109Y189417D01*
X348150Y189389D01*
X348220Y189333D01*
X348317Y189278D01*
X348428Y189236D01*
X348580Y189181D01*
X348747Y189153D01*
X348927Y189139D01*
X348955D01*
X349010D01*
X349107Y189153D01*
X349232Y189167D01*
X349357Y189209D01*
X349496Y189250D01*
X349620Y189319D01*
X349745Y189417D01*
X349759Y189430D01*
X349787Y189472D01*
X349842Y189527D01*
X349898Y189611D01*
X349939Y189722D01*
X349995Y189846D01*
X350023Y189999D01*
X350036Y190165D01*
Y190263D01*
X350023Y190346D01*
X350009Y190443D01*
X349981Y190554D01*
X349953Y190692D01*
X349912Y190845D01*
X351409Y190748D01*
Y190651D01*
X351395Y190554D01*
Y190401D01*
X351409Y190318D01*
X351423Y190221D01*
X351451Y190124D01*
X351507Y189999D01*
X351562Y189888D01*
X351645Y189777D01*
X351659Y189763D01*
X351687Y189736D01*
X351742Y189680D01*
X351825Y189625D01*
X351909Y189583D01*
X352020Y189527D01*
X352144Y189500D01*
X352269Y189486D01*
X352283D01*
X352325D01*
X352394Y189500D01*
X352463Y189514D01*
X352561Y189541D01*
X352644Y189569D01*
X352741Y189625D01*
X352824Y189694D01*
X352838Y189708D01*
X352852Y189736D01*
X352893Y189777D01*
X352935Y189846D01*
X352963Y189930D01*
X353004Y190027D01*
X353018Y190138D01*
X353032Y190276D01*
Y190332D01*
X353018Y190401D01*
X353004Y190498D01*
X352976Y190595D01*
X352935Y190692D01*
X352879Y190790D01*
X352796Y190886D01*
X352782Y190900D01*
X352755Y190928D01*
X352699Y190956D01*
X352616Y191011D01*
X352505Y191053D01*
X352380Y191108D01*
X352214Y191150D01*
X352020Y191192D01*
X352366Y193189D01*
X352380D01*
X352408Y193175D01*
X352463Y193161D01*
X352519Y193147D01*
X352602Y193106D01*
X352699Y193078D01*
X352907Y192981D01*
X353143Y192856D01*
X353393Y192689D01*
X353628Y192495D01*
X353836Y192246D01*
Y192232D01*
X353864Y192218D01*
X353878Y192176D01*
X353920Y192107D01*
X353961Y192038D01*
X354003Y191954D01*
X354044Y191843D01*
X354100Y191719D01*
X354142Y191594D01*
X354183Y191441D01*
X354225Y191275D01*
X354266Y191095D01*
X354308Y190900D01*
X354322Y190692D01*
X354350Y190235D01*
Y190096D01*
X354336Y189985D01*
Y189860D01*
X354322Y189722D01*
X354308Y189569D01*
X354280Y189403D01*
X354211Y189042D01*
X354114Y188695D01*
X353975Y188349D01*
X353892Y188210D01*
X353795Y188071D01*
Y188057D01*
X353767Y188043D01*
X353698Y187960D01*
X353573Y187863D01*
X353406Y187738D01*
X353212Y187614D01*
X352976Y187503D01*
X352699Y187433D01*
X352547Y187419D01*
X352394Y187406D01*
X352366D01*
X352311D01*
X352214Y187419D01*
X352103Y187433D01*
X351964Y187475D01*
X351812Y187516D01*
X351659Y187586D01*
X351507Y187683D01*
X351493Y187697D01*
X351437Y187738D01*
X351368Y187794D01*
X351271Y187877D01*
X351174Y187988D01*
X351049Y188127D01*
X350924Y188293D01*
X350813Y188487D01*
Y188473D01*
X350799Y188418D01*
X350771Y188335D01*
X350744Y188238D01*
X350661Y188030D01*
X350619Y187919D01*
X350563Y187822D01*
X350550Y187808D01*
X350522Y187766D01*
X350466Y187697D01*
X350397Y187614D01*
X350314Y187516D01*
X350203Y187419D01*
X350078Y187322D01*
X349939Y187239D01*
X349925Y187225D01*
X349870Y187197D01*
X349787Y187170D01*
X349690Y187128D01*
X349551Y187087D01*
X349398Y187045D01*
X349232Y187031D01*
X349038Y187017D01*
X349024D01*
X349010D01*
X348927D01*
X348802Y187031D01*
X348636Y187059D01*
X348428Y187101D01*
X348220Y187170D01*
X347998Y187253D01*
X347762Y187378D01*
X347734Y187392D01*
X347665Y187447D01*
X347554Y187516D01*
X347415Y187628D01*
X347263Y187780D01*
X347110Y187946D01*
X346958Y188141D01*
X346819Y188376D01*
Y188390D01*
X346805Y188404D01*
X346791Y188446D01*
X346763Y188501D01*
X346750Y188557D01*
X346722Y188640D01*
X346666Y188834D01*
X346597Y189084D01*
X346555Y189375D01*
X346514Y189722D01*
X346500Y190096D01*
Y190263D01*
X346514Y190346D01*
Y190457D01*
X346528Y190679D01*
X346555Y190942D01*
X346597Y191219D01*
X346652Y191483D01*
X346736Y191733D01*
X346750Y191760D01*
X346777Y191830D01*
X346833Y191940D01*
X346916Y192079D01*
X347013Y192232D01*
X347138Y192398D01*
X347277Y192565D01*
X347443Y192717D01*
X347471Y192731D01*
X347526Y192787D01*
X347623Y192856D01*
X347762Y192939D01*
X347942Y193036D01*
X348136Y193119D01*
X348372Y193216D01*
X348622Y193300D01*
X348913Y191192D01*
D02*
G37*
G36*
X350799Y186143D02*
X350979Y186130D01*
X351188Y186116D01*
X351409Y186088D01*
X351645Y186060D01*
X352144Y185963D01*
X352644Y185825D01*
X352879Y185741D01*
X353101Y185630D01*
X353296Y185520D01*
X353476Y185381D01*
X353490Y185367D01*
X353517Y185339D01*
X353559Y185298D01*
X353615Y185228D01*
X353684Y185145D01*
X353753Y185048D01*
X353836Y184923D01*
X353920Y184784D01*
X353989Y184632D01*
X354072Y184452D01*
X354142Y184257D01*
X354211Y184049D01*
X354266Y183814D01*
X354308Y183564D01*
X354336Y183287D01*
X354350Y182995D01*
Y182871D01*
X354336Y182732D01*
X354322Y182552D01*
X354308Y182358D01*
X354266Y182149D01*
X354225Y181941D01*
X354155Y181747D01*
X354142Y181719D01*
X354128Y181664D01*
X354072Y181567D01*
X354017Y181456D01*
X353947Y181331D01*
X353864Y181192D01*
X353767Y181068D01*
X353656Y180943D01*
X353642Y180929D01*
X353601Y180887D01*
X353545Y180832D01*
X353462Y180763D01*
X353379Y180679D01*
X353268Y180596D01*
X353018Y180444D01*
X353004Y180430D01*
X352963Y180416D01*
X352893Y180374D01*
X352796Y180333D01*
X352685Y180291D01*
X352547Y180250D01*
X352408Y180194D01*
X352242Y180152D01*
X352228D01*
X352200Y180138D01*
X352158Y180125D01*
X352089Y180111D01*
X352020Y180097D01*
X351922Y180083D01*
X351701Y180041D01*
X351437Y180000D01*
X351146Y179958D01*
X350813Y179944D01*
X350480Y179930D01*
X350452D01*
X350383D01*
X350286D01*
X350147Y179944D01*
X349967Y179958D01*
X349773Y179972D01*
X349565Y179986D01*
X349329Y180014D01*
X348830Y180097D01*
X348331Y180222D01*
X348095Y180305D01*
X347859Y180402D01*
X347651Y180513D01*
X347457Y180638D01*
X347443Y180652D01*
X347415Y180665D01*
X347374Y180707D01*
X347304Y180777D01*
X347235Y180860D01*
X347152Y180957D01*
X347069Y181068D01*
X346985Y181206D01*
X346888Y181359D01*
X346805Y181539D01*
X346722Y181733D01*
X346652Y181955D01*
X346583Y182191D01*
X346542Y182454D01*
X346514Y182746D01*
X346500Y183051D01*
Y183217D01*
X346514Y183300D01*
Y183384D01*
X346542Y183606D01*
X346569Y183855D01*
X346625Y184119D01*
X346708Y184382D01*
X346805Y184618D01*
X346819Y184646D01*
X346861Y184715D01*
X346930Y184826D01*
X347027Y184951D01*
X347152Y185117D01*
X347304Y185270D01*
X347485Y185436D01*
X347693Y185589D01*
X347706Y185603D01*
X347776Y185630D01*
X347859Y185686D01*
X347998Y185741D01*
X348150Y185811D01*
X348344Y185880D01*
X348580Y185949D01*
X348830Y186005D01*
X348844D01*
X348858D01*
X348899Y186019D01*
X348955Y186033D01*
X349107Y186047D01*
X349315Y186074D01*
X349551Y186102D01*
X349828Y186130D01*
X350134Y186143D01*
X350452Y186157D01*
X350480D01*
X350550D01*
X350661D01*
X350799Y186143D01*
D02*
G37*
%LPC*%
G36*
X350716Y184063D02*
X350452D01*
X350439D01*
X350383D01*
X350314D01*
X350217D01*
X350106Y184049D01*
X349967D01*
X349662Y184035D01*
X349329Y184008D01*
X348996Y183952D01*
X348844Y183925D01*
X348705Y183897D01*
X348580Y183855D01*
X348469Y183814D01*
X348442Y183800D01*
X348386Y183758D01*
X348303Y183703D01*
X348206Y183619D01*
X348109Y183508D01*
X348026Y183384D01*
X347970Y183231D01*
X347942Y183065D01*
Y183009D01*
X347956Y182940D01*
X347970Y182871D01*
X347998Y182773D01*
X348039Y182690D01*
X348095Y182593D01*
X348164Y182496D01*
X348178Y182482D01*
X348206Y182454D01*
X348261Y182413D01*
X348331Y182358D01*
X348442Y182302D01*
X348553Y182246D01*
X348705Y182191D01*
X348871Y182149D01*
X348899D01*
X348969Y182136D01*
X349080Y182108D01*
X349246Y182080D01*
X349454Y182066D01*
X349717Y182038D01*
X350023Y182025D01*
X350383D01*
X350397D01*
X350452D01*
X350522D01*
X350633D01*
X350744Y182038D01*
X350896D01*
X351201Y182052D01*
X351548Y182094D01*
X351881Y182136D01*
X352034Y182163D01*
X352186Y182205D01*
X352311Y182246D01*
X352422Y182288D01*
X352449Y182302D01*
X352505Y182344D01*
X352588Y182399D01*
X352685Y182482D01*
X352782Y182593D01*
X352866Y182732D01*
X352921Y182885D01*
X352949Y183065D01*
Y183092D01*
X352935Y183148D01*
X352921Y183245D01*
X352879Y183356D01*
X352824Y183481D01*
X352727Y183606D01*
X352588Y183730D01*
X352408Y183827D01*
X352380Y183841D01*
X352352Y183855D01*
X352297Y183869D01*
X352242Y183883D01*
X352172Y183897D01*
X352075Y183925D01*
X351964Y183939D01*
X351839Y183966D01*
X351701Y183994D01*
X351534Y184008D01*
X351368Y184022D01*
X351160Y184035D01*
X350952Y184049D01*
X350716Y184063D01*
D02*
G37*
%LPD*%
D10*
X354750Y172250D02*
G03*
X354750Y172250I-1000J0D01*
G01*
D11*
X410750Y159850D02*
Y220750D01*
X370250Y213850D02*
Y231500D01*
X384550D01*
X370250Y149000D02*
Y166650D01*
Y149000D02*
X384450D01*
D12*
X361052Y163726D02*
X360052Y164726D01*
X358053D01*
X357053Y163726D01*
Y159727D01*
X358053Y158728D01*
X360052D01*
X361052Y159727D01*
X363051Y164726D02*
Y158728D01*
X367050D01*
X363051Y153448D02*
Y149449D01*
X365051Y147450D01*
X367050Y149449D01*
Y153448D01*
Y230226D02*
X366050Y231226D01*
X364051D01*
X363051Y230226D01*
Y226227D01*
X364051Y225228D01*
X366050D01*
X367050Y226227D01*
Y228227D01*
X365051D01*
X357053Y219948D02*
Y213950D01*
X360052D01*
X361052Y214950D01*
Y218948D01*
X360052Y219948D01*
X357053D01*
X363051Y213950D02*
Y217949D01*
X365051Y219948D01*
X367050Y217949D01*
Y213950D01*
Y216949D01*
X363051D01*
M02*
