G04*
G04 #@! TF.GenerationSoftware,Altium Limited,Altium Designer,21.6.1 (37)*
G04*
G04 Layer_Color=32896*
%FSLAX44Y44*%
%MOMM*%
G71*
G04*
G04 #@! TF.SameCoordinates,C7AD8A55-ACD4-4C58-AC61-2F0119C6478F*
G04*
G04*
G04 #@! TF.FilePolarity,Positive*
G04*
G01*
G75*
%ADD10C,0.2000*%
%ADD17C,0.3000*%
%ADD28C,0.1524*%
%ADD29C,0.1000*%
%ADD30C,0.1500*%
D10*
X378500Y168500D02*
G03*
X378500Y168500I-1000J0D01*
G01*
D17*
X353498Y157424D02*
X348833D01*
X346500Y159756D01*
X348833Y162089D01*
X353498D01*
X346500Y171419D02*
Y173752D01*
Y172585D01*
X353498D01*
X352331Y171419D01*
X346500Y177251D02*
X347666D01*
Y178417D01*
X346500D01*
Y177251D01*
X352331Y183082D02*
X353498Y184248D01*
Y186581D01*
X352331Y187747D01*
X347666D01*
X346500Y186581D01*
Y184248D01*
X347666Y183082D01*
X352331D01*
X346500Y190080D02*
X347666D01*
Y191246D01*
X346500D01*
Y190080D01*
X352331Y195911D02*
X353498Y197078D01*
Y199410D01*
X352331Y200576D01*
X347666D01*
X346500Y199410D01*
Y197078D01*
X347666Y195911D01*
X352331D01*
D28*
X409942Y191778D02*
G03*
X409942Y188222I2276J-1778D01*
G01*
Y191778D02*
G03*
X409942Y188222I2276J-1778D01*
G01*
D29*
X355000Y177000D02*
Y202000D01*
X380000Y177000D02*
Y202000D01*
X379250Y177000D02*
X380000D01*
X379250Y202000D02*
X380000D01*
X355000D02*
X355750D01*
X355000Y177000D02*
X355750D01*
D30*
X371748Y212749D02*
Y207751D01*
X370749Y206751D01*
X368749D01*
X367750Y207751D01*
Y212749D01*
X361752Y206751D02*
X365750D01*
X361752Y210750D01*
Y211749D01*
X362751Y212749D01*
X364751D01*
X365750Y211749D01*
X392999Y216999D02*
Y212001D01*
X391999Y211001D01*
X390000D01*
X389000Y212001D01*
Y216999D01*
X387001Y211001D02*
X385001D01*
X386001D01*
Y216999D01*
X387001Y215999D01*
X364001Y155752D02*
X369999D01*
Y158751D01*
X368999Y159750D01*
X367000D01*
X366000Y158751D01*
Y155752D01*
Y157751D02*
X364001Y159750D01*
Y165748D02*
Y161750D01*
X368000Y165748D01*
X368999D01*
X369999Y164749D01*
Y162749D01*
X368999Y161750D01*
X380001Y156501D02*
X385999D01*
Y159500D01*
X384999Y160500D01*
X383000D01*
X382000Y159500D01*
Y156501D01*
Y158501D02*
X380001Y160500D01*
Y162499D02*
Y164499D01*
Y163499D01*
X385999D01*
X384999Y162499D01*
X402750Y228749D02*
X403749Y229749D01*
X405749D01*
X406748Y228749D01*
Y224751D01*
X405749Y223751D01*
X403749D01*
X402750Y224751D01*
X400750Y228749D02*
X399751Y229749D01*
X397751D01*
X396752Y228749D01*
Y227750D01*
X397751Y226750D01*
X398751D01*
X397751D01*
X396752Y225750D01*
Y224751D01*
X397751Y223751D01*
X399751D01*
X400750Y224751D01*
X368000Y228749D02*
X368999Y229749D01*
X370999D01*
X371998Y228749D01*
Y224751D01*
X370999Y223751D01*
X368999D01*
X368000Y224751D01*
X362002Y223751D02*
X366000D01*
X362002Y227750D01*
Y228749D01*
X363001Y229749D01*
X365001D01*
X366000Y228749D01*
X402750Y155749D02*
X403750Y156749D01*
X405749D01*
X406749Y155749D01*
Y151751D01*
X405749Y150751D01*
X403750D01*
X402750Y151751D01*
X400751Y150751D02*
X398751D01*
X399751D01*
Y156749D01*
X400751Y155749D01*
M02*
